<svg width="16" height="16" viewBox="0 0 16 16" fill="none" xmlns="http://www.w3.org/2000/svg">
<path d="M14.3536 2.35355C14.5488 2.15829 14.5488 1.84171 14.3536 1.64645C14.1583 1.45118 13.8417 1.45118 13.6464 1.64645L14.3536 2.35355ZM1.5 14C1.5 14.2761 1.72386 14.5 2 14.5L6.5 14.5C6.77614 14.5 7 14.2761 7 14C7 13.7239 6.77614 13.5 6.5 13.5L2.5 13.5L2.5 9.5C2.5 9.22386 2.27614 9 2 9C1.72386 9 1.5 9.22386 1.5 9.5L1.5 14ZM13.6464 1.64645L1.64645 13.6464L2.35355 14.3536L14.3536 2.35355L13.6464 1.64645Z" fill="black"/>
</svg>
